<svg xmlns="http://www.w3.org/2000/svg" width="31.869" height="34.931" viewBox="0 0 31.869 34.931"><defs><style>.a{fill:#b1b1b1;stroke:#b1b1b1;}.b{fill:#8fb458;}</style></defs><g transform="translate(0.5 0.5)"><path class="a" d="M23.125,14.688V8.267a.743.743,0,0,0-.2-.488l-7.2-7.56A.718.718,0,0,0,15.2,0H3.79A3.8,3.8,0,0,0,0,3.826V25.409a3.779,3.779,0,0,0,3.79,3.8H12.8A9.725,9.725,0,1,0,23.125,14.688ZM15.912,2.482l4.83,5.085H17.609a1.708,1.708,0,0,1-1.7-1.7ZM3.79,27.792a2.369,2.369,0,0,1-2.376-2.383V3.826A2.389,2.389,0,0,1,3.79,1.414H14.5V5.863a3.118,3.118,0,0,0,3.112,3.119h4.1V14.5c-.212-.007-.382-.028-.566-.028a9.868,9.868,0,0,0-6.45,2.433H5.714a.707.707,0,1,0,0,1.414H13.38a11.252,11.252,0,0,0-1.245,2.192H5.714a.707.707,0,0,0,0,1.414h5.962A9.705,9.705,0,0,0,12.1,27.8H3.79Zm17.348,4.731a8.31,8.31,0,1,1,8.309-8.31A8.318,8.318,0,0,1,21.138,32.524Zm0,0" transform="translate(0 0)"/><path class="a" d="M76.258,203.1h7.164a.707.707,0,1,0,0-1.414H76.258a.707.707,0,1,0,0,1.414Zm0,0" transform="translate(-70.544 -188.318)"/><path class="b" d="M250.926,283.437a.7.7,0,0,0-1.032,0l-4.144,4.448a.7.7,0,0,0,.035,1,.722.722,0,0,0,1.011-.035l2.928-3.133v7.722a.707.707,0,1,0,1.414,0v-7.722l2.906,3.133a.706.706,0,0,0,1.033-.962Zm0,0" transform="translate(-229.286 -264.442)"/></g></svg>